<svg xmlns="http://www.w3.org/2000/svg" viewBox="0 0 203.00 337.00" data-guides="{&quot;vertical&quot;:[],&quot;horizontal&quot;:[]}"><defs/><path fill="#ffffff" stroke="none" fill-opacity="1" stroke-width="1" stroke-opacity="1" class="cls-1" id="tSvg12877700c5b" title="Path 40" d="M111.5222 112.097C110.3625 144.9691 118.5138 177.4932 135.065 205.9249C158.0279 245.4078 148.6174 295.7431 112.9305 324.2411C108.2087 327.1571 104.2821 331.1999 101.4987 336.0047C98.7319 331.1999 94.8054 327.1571 90.067 324.2411C54.38 295.7431 44.953 245.3912 67.9325 205.9249C84.4671 177.4932 92.635 144.9691 91.4752 112.097C90.5806 86.8245 89.6859 61.5519 88.7913 36.2793C88.3274 23.3226 92.8835 10.6808 101.4987 1.0048C110.114 10.6974 114.6701 23.3226 114.2062 36.2793C113.3115 61.5519 112.4169 86.8245 111.5222 112.097ZM109.8654 304.3919C133.11 280.1189 137.4839 243.403 120.5848 214.3417C112.2843 200.0762 105.8726 184.7999 101.4987 168.8941C97.1248 184.7999 90.7131 200.0927 82.4127 214.3417C65.5136 243.3864 69.8874 280.1189 93.132 304.3919C93.132 287.0115 93.132 269.631 93.132 252.2506C98.7153 252.2506 104.2987 252.2506 109.882 252.2506C109.882 269.631 109.882 287.0115 109.8654 304.3919Z" style=""/><path fill="#ffffff" stroke="none" fill-opacity="1" stroke-width="1" stroke-opacity="1" class="cls-1" id="tSvg18bddf52b50" title="Path 41" d="M148.0376 105.9832C152.0138 72.1834 172.1271 42.4262 201.9987 26.1227C201.9987 107.0823 201.9987 188.0419 201.9987 269.0014C168.4987 269.0014 134.9987 269.0014 101.4987 269.0014C98.7098 263.4178 95.9209 257.8342 93.132 252.2506C93.132 234.6216 105.3424 219.3454 122.5398 215.4849C130.7132 213.6458 138.8866 211.8067 147.0601 209.9676C156.0895 207.9297 161.7557 198.9661 159.7178 189.9528C157.68 180.9395 148.7168 175.2564 139.704 177.2944C139.6874 177.2944 139.6708 177.2944 139.6377 177.2944C142.4377 153.5185 145.2376 129.7426 148.0376 105.9832ZM158.0776 163.5259C174.6951 171.6445 181.5873 191.709 173.4691 208.3273C169.0123 217.4566 160.6456 224.084 150.7215 226.3042C142.5481 228.1433 134.3747 229.9824 126.2013 231.8216C116.6417 233.9755 109.8654 242.4586 109.8654 252.2506C134.9877 252.2506 160.1099 252.2506 185.2322 252.2506C185.2322 188.4671 185.2322 124.6836 185.2322 60.9002C173.8667 74.1716 166.7094 90.5248 164.655 107.8721C162.457 126.4233 160.259 144.9746 158.0776 163.5259ZM171.8454 185.2639C177.4288 185.2639 183.0121 185.2639 188.5954 185.2639C188.5954 190.8475 188.5954 196.4311 188.5954 202.0147C183.0121 202.0147 177.4288 202.0147 171.8454 202.0147C171.8454 196.4311 171.8454 190.8475 171.8454 185.2639Z" style=""/><path fill="#ffffff" stroke="none" fill-opacity="1" stroke-width="1" stroke-opacity="1" class="cls-1" id="tSvge2bf396c26" title="Path 42" d="M54.9599 105.9832C50.9836 72.1834 30.8704 42.4262 0.9987 26.1227C0.9987 107.0823 0.9987 188.0419 0.9987 269.0014C34.4987 269.0014 67.9987 269.0014 101.4987 269.0014C104.2876 263.4178 107.0765 257.8342 109.8654 252.2506C109.8654 234.6216 97.655 219.3454 80.4577 215.4849C72.2843 213.6458 64.1108 211.8067 55.9374 209.9676C46.908 207.9297 41.2418 198.9661 43.2796 189.9528C45.3175 180.9229 54.2806 175.2564 63.2935 177.2944C63.31 177.2944 63.3266 177.2944 63.3598 177.2944C60.5598 153.5185 57.7599 129.7426 54.9599 105.9832ZM44.9198 163.5259C28.3024 171.6445 21.4102 191.709 29.5284 208.3273C33.9851 217.4566 42.3518 224.084 52.2759 226.3042C60.4494 228.1433 68.6228 229.9824 76.7962 231.8216C86.3558 233.9755 93.132 242.4586 93.132 252.2506C68.0042 252.2506 42.8765 252.2506 17.7487 252.2506C17.7487 188.4671 17.7487 124.6836 17.7487 60.9002C29.1142 74.1716 36.2715 90.5248 38.3259 107.8721C40.5239 126.4233 42.7219 144.9746 44.9198 163.5259ZM31.152 185.2639C25.5687 185.2639 19.9854 185.2639 14.402 185.2639C14.402 190.8475 14.402 196.4311 14.402 202.0147C19.9854 202.0147 25.5687 202.0147 31.152 202.0147C31.152 196.4311 31.152 190.8475 31.152 185.2639Z" style=""/></svg>