<?xml version="1.0" encoding="UTF-8"?>
<svg id="_Слой_2" data-name="Слой_2" xmlns="http://www.w3.org/2000/svg" viewBox="0 0 1553.37 227.08">
  <defs>
    <style>
      .cls-1 {
        fill: #fff;
      }
    </style>
  </defs>
  <g id="Layer_1">
    <g>
      <g>
        <path class="cls-1" d="M271.76,78.53l-18.77-26.62-18.39,26.62h-16.86l26.81-37.35-25.28-35.43h16.85l17.24,24.52,17.43-24.52h16.28l-25.09,35.24,26.62,37.54h-16.86Z"/>
        <path class="cls-1" d="M347.41,66.65v11.88c-.96.19-2.49.38-4.98.38-7.09,0-10.72-2.68-11.68-8.81-4.22,5.74-11.68,9.38-20.11,9.38-11.11,0-18.77-6.7-18.77-16.86,0-14.56,13.79-17.43,24.71-18.77,7.47-.96,12.26-1.92,12.26-5.75,0-4.02-4.21-6.7-11.11-6.7-6.13,0-11.68,2.49-16.28,7.09l-8.24-8.62c6.7-6.32,15.13-9.77,25.28-9.77,14.56,0,23.17,7.28,23.17,19.15v23.94c0,2.3,1.15,3.45,3.45,3.45h2.3ZM328.44,56.31v-5.94c-2.3,1.34-5.55,1.92-10.34,2.68-6.51,1.15-12.83,2.11-12.83,8.43,0,4.41,3.06,7.09,8.24,7.09,8.24,0,14.94-5.55,14.94-12.26Z"/>
        <path class="cls-1" d="M416.16,49.8c0,17.81-10.15,29.69-24.71,29.69-7.66,0-13.98-2.87-18.39-8.24v26.43h-13.79V21.07h12.26l.77,8.62c4.4-6.13,11.11-9.58,19.15-9.58,14.94,0,24.71,11.68,24.71,29.69ZM402.18,49.8c0-11.11-5.75-18.2-14.94-18.2s-14.75,7.09-14.75,18.2,5.55,18.2,14.75,18.2,14.94-7.09,14.94-18.2Z"/>
        <path class="cls-1" d="M450.25,53.24l-7.85,7.47v17.81h-13.79V21.07h13.79v24.13l23.56-24.13h17.24l-23.37,22.6,24.32,34.86h-16.47l-17.43-25.28Z"/>
        <path class="cls-1" d="M493.34,1.15h14.94v12.26h-14.94V1.15ZM493.91,21.07h13.79v57.46h-13.79V21.07Z"/>
        <path class="cls-1" d="M574.54,62.82c0,10.15-7.85,15.7-20.88,15.7h-28.35V21.07h26.24c13.41,0,21.45,4.79,21.45,15.13,0,6.32-3.26,10.72-8.24,12.83,6.32,2.11,9.77,6.9,9.77,13.79ZM538.34,44.24h13.22c5.55,0,8.04-1.91,8.04-6.51,0-4.02-2.68-6.32-7.66-6.32h-13.6v12.83ZM560.75,61.1c0-4.4-3.26-7.09-8.81-7.09h-13.6v13.98h13.98c5.36,0,8.43-2.68,8.43-6.9Z"/>
        <path class="cls-1" d="M582.77,49.8c0-17.81,11.88-29.69,29.3-29.69,12.83,0,22.98,6.32,26.24,17.24l-13.22,4.02c-2.11-6.13-6.7-9.77-13.22-9.77-9.19,0-14.94,7.09-14.94,18.2s5.75,18.2,14.94,18.2c6.51,0,11.11-3.64,13.41-9.77l13.02,4.02c-3.26,10.92-13.41,17.24-26.24,17.24-17.43,0-29.3-11.88-29.3-29.69Z"/>
        <path class="cls-1" d="M698.84,59.95c0,11.49-8.43,18.58-21.64,18.58h-28.15V21.07h13.79v20.3h14.36c13.41,0,21.64,7.09,21.64,18.58ZM684.85,59.76c0-4.98-3.45-7.66-9.58-7.66h-12.45v15.51h12.45c6.13,0,9.58-2.68,9.58-7.85Z"/>
        <path class="cls-1" d="M731.97,53.24l-7.85,7.47v17.81h-13.79V21.07h13.79v24.13l23.56-24.13h17.24l-23.36,22.6,24.32,34.86h-16.47l-17.43-25.28Z"/>
        <path class="cls-1" d="M825.23,66.65v11.88c-.96.19-2.49.38-4.98.38-7.09,0-10.72-2.68-11.68-8.81-4.22,5.74-11.68,9.38-20.11,9.38-11.11,0-18.77-6.7-18.77-16.86,0-14.56,13.79-17.43,24.71-18.77,7.47-.96,12.26-1.92,12.26-5.75,0-4.02-4.21-6.7-11.11-6.7-6.13,0-11.68,2.49-16.28,7.09l-8.24-8.62c6.7-6.32,15.13-9.77,25.28-9.77,14.56,0,23.17,7.28,23.17,19.15v23.94c0,2.3,1.15,3.45,3.45,3.45h2.3ZM806.27,56.31v-5.94c-2.3,1.34-5.55,1.92-10.34,2.68-6.51,1.15-12.83,2.11-12.83,8.43,0,4.41,3.06,7.09,8.24,7.09,8.24,0,14.94-5.55,14.94-12.26Z"/>
        <path class="cls-1" d="M863.73,49.8c0-17.81,12.07-29.69,29.69-29.69s29.69,11.68,29.69,29.69-12.07,29.69-29.69,29.69-29.69-11.68-29.69-29.69ZM908.93,49.8c0-11.3-5.94-18.2-15.51-18.2s-15.51,6.9-15.51,18.2,5.94,18.2,15.51,18.2,15.51-6.9,15.51-18.2Z"/>
        <path class="cls-1" d="M989.75,52.86c0,15.7-11.68,26.62-28.54,26.62-18,0-28.92-12.64-28.92-33.33s8.24-33.52,25.86-37.35l13.6-3.06c2.11-.38,3.26-1.53,3.64-3.64l.58-2.11,13.02,2.3-.19,2.11c-.96,7.47-5.17,11.49-12.64,13.41l-17.05,3.45c-10.15,2.11-14.56,6.7-15.13,15.9,4.02-6.13,11.3-9.58,20.69-9.58,14.75,0,25.09,10.53,25.09,25.28ZM975.38,52.86c0-9.58-5.36-15.32-14.17-15.32s-14.56,5.74-14.56,15.13,5.94,15.32,14.56,15.32,14.17-5.94,14.17-15.13Z"/>
        <path class="cls-1" d="M1050.84,78.53h-13.79v-45.01h-20.69v18.39c0,20.49-4.6,27-16.85,27-2.11,0-4.4-.19-5.94-.38v-12.45h3.26c4.6,0,5.94-1.72,5.94-15.71v-29.3h48.07v57.46Z"/>
        <path class="cls-1" d="M1118.44,66.65v11.88c-.96.19-2.49.38-4.98.38-7.09,0-10.72-2.68-11.68-8.81-4.22,5.74-11.68,9.38-20.11,9.38-11.11,0-18.77-6.7-18.77-16.86,0-14.56,13.79-17.43,24.71-18.77,7.47-.96,12.26-1.92,12.26-5.75,0-4.02-4.21-6.7-11.11-6.7-6.13,0-11.68,2.49-16.28,7.09l-8.24-8.62c6.7-6.32,15.13-9.77,25.28-9.77,14.56,0,23.17,7.28,23.17,19.15v23.94c0,2.3,1.15,3.45,3.45,3.45h2.3ZM1099.48,56.31v-5.94c-2.3,1.34-5.55,1.92-10.34,2.68-6.51,1.15-12.83,2.11-12.83,8.43,0,4.41,3.06,7.09,8.24,7.09,8.24,0,14.94-5.55,14.94-12.26Z"/>
        <path class="cls-1" d="M1125.33,49.8c0-17.81,11.88-29.69,29.3-29.69,12.83,0,22.98,6.32,26.24,17.24l-13.22,4.02c-2.11-6.13-6.7-9.77-13.22-9.77-9.19,0-14.94,7.09-14.94,18.2s5.75,18.2,14.94,18.2c6.51,0,11.11-3.64,13.41-9.77l13.02,4.02c-3.26,10.92-13.41,17.24-26.24,17.24-17.43,0-29.3-11.88-29.3-29.69Z"/>
        <path class="cls-1" d="M1244.07,21.07v57.46h-13.79v-22.98h-24.9v22.98h-13.79V21.07h13.79v21.83h24.9v-21.83h13.79Z"/>
        <path class="cls-1" d="M1311.49,66.65v11.88c-.96.19-2.49.38-4.98.38-7.09,0-10.72-2.68-11.68-8.81-4.21,5.74-11.68,9.38-20.11,9.38-11.11,0-18.77-6.7-18.77-16.86,0-14.56,13.79-17.43,24.71-18.77,7.47-.96,12.26-1.92,12.26-5.75,0-4.02-4.21-6.7-11.11-6.7-6.13,0-11.68,2.49-16.28,7.09l-8.24-8.62c6.7-6.32,15.13-9.77,25.28-9.77,14.56,0,23.17,7.28,23.17,19.15v23.94c0,2.3,1.15,3.45,3.45,3.45h2.3ZM1292.53,56.31v-5.94c-2.3,1.34-5.55,1.92-10.34,2.68-6.51,1.15-12.83,2.11-12.83,8.43,0,4.41,3.06,7.09,8.24,7.09,8.24,0,14.94-5.55,14.94-12.26Z"/>
        <path class="cls-1" d="M273.67,192.22c0,10.15-7.85,15.7-20.88,15.7h-28.35v-57.46h26.24c13.41,0,21.45,4.79,21.45,15.13,0,6.32-3.26,10.72-8.24,12.83,6.32,2.11,9.77,6.9,9.77,13.79ZM237.48,173.64h13.22c5.55,0,8.04-1.91,8.04-6.51,0-4.02-2.68-6.32-7.66-6.32h-13.6v12.83ZM259.88,190.5c0-4.4-3.26-7.09-8.81-7.09h-13.6v13.98h13.98c5.36,0,8.43-2.68,8.43-6.9Z"/>
        <path class="cls-1" d="M286.69,130.55h14.94v12.26h-14.94v-12.26ZM287.27,150.47h13.79v57.46h-13.79v-57.46Z"/>
        <path class="cls-1" d="M371.35,150.47v57.46h-13.41v-37.92l-25.47,37.92h-13.79v-57.46h13.6v37.92l25.28-37.92h13.79ZM326.53,131.12l10.53-1.53c.77,4.41,3.83,6.7,8.04,6.7s7.28-2.3,8.04-6.7l10.53,1.53c-.96,8.62-7.85,13.98-18.58,13.98s-17.62-5.36-18.58-13.98Z"/>
        <path class="cls-1" d="M383.98,179.2c0-17.81,11.88-29.69,29.3-29.69,12.83,0,22.98,6.32,26.24,17.24l-13.22,4.02c-2.11-6.13-6.7-9.77-13.22-9.77-9.19,0-14.94,7.09-14.94,18.2s5.75,18.2,14.94,18.2c6.51,0,11.11-3.64,13.41-9.77l13.02,4.02c-3.26,10.92-13.41,17.24-26.24,17.24-17.43,0-29.3-11.88-29.3-29.69Z"/>
        <path class="cls-1" d="M500.04,189.35c0,11.49-8.43,18.58-21.64,18.58h-28.15v-57.46h13.79v20.3h14.36c13.41,0,21.64,7.09,21.64,18.58ZM486.06,189.16c0-4.98-3.45-7.66-9.58-7.66h-12.45v15.51h12.45c6.13,0,9.58-2.68,9.58-7.85Z"/>
        <path class="cls-1" d="M533.17,182.64l-7.85,7.47v17.81h-13.79v-57.46h13.79v24.13l23.56-24.13h17.24l-23.36,22.6,24.32,34.86h-16.47l-17.43-25.28Z"/>
        <path class="cls-1" d="M571.28,179.2c0-17.81,12.07-29.69,29.69-29.69s29.69,11.68,29.69,29.69-12.07,29.69-29.69,29.69-29.69-11.68-29.69-29.69ZM616.48,179.2c0-11.3-5.94-18.2-15.51-18.2s-15.51,6.9-15.51,18.2,5.94,18.2,15.51,18.2,15.51-6.9,15.51-18.2Z"/>
        <path class="cls-1" d="M692.32,192.22c0,10.15-7.85,15.7-20.88,15.7h-28.35v-57.46h26.24c13.41,0,21.45,4.79,21.45,15.13,0,6.32-3.26,10.72-8.24,12.83,6.32,2.11,9.77,6.9,9.77,13.79ZM656.12,173.64h13.22c5.55,0,8.04-1.91,8.04-6.51,0-4.02-2.68-6.32-7.66-6.32h-13.6v12.83ZM678.53,190.5c0-4.4-3.26-7.09-8.81-7.09h-13.6v13.98h13.98c5.36,0,8.43-2.68,8.43-6.9Z"/>
        <path class="cls-1" d="M755.33,196.05v11.88c-.96.19-2.49.38-4.98.38-7.09,0-10.72-2.68-11.68-8.81-4.21,5.74-11.68,9.38-20.11,9.38-11.11,0-18.77-6.7-18.77-16.86,0-14.56,13.79-17.43,24.71-18.77,7.47-.96,12.26-1.92,12.26-5.75,0-4.02-4.21-6.7-11.11-6.7-6.13,0-11.68,2.49-16.28,7.09l-8.24-8.62c6.7-6.32,15.13-9.77,25.28-9.77,14.56,0,23.17,7.28,23.17,19.15v23.94c0,2.3,1.15,3.45,3.45,3.45h2.3ZM736.37,185.71v-5.94c-2.3,1.34-5.55,1.92-10.34,2.68-6.51,1.15-12.83,2.11-12.83,8.43,0,4.41,3.06,7.09,8.24,7.09,8.24,0,14.94-5.55,14.94-12.26Z"/>
        <path class="cls-1" d="M848.79,196.05v11.88c-.96.19-2.49.38-4.98.38-7.09,0-10.72-2.68-11.68-8.81-4.21,5.74-11.68,9.38-20.11,9.38-11.11,0-18.77-6.7-18.77-16.86,0-14.56,13.79-17.43,24.71-18.77,7.47-.96,12.26-1.92,12.26-5.75,0-4.02-4.21-6.7-11.11-6.7-6.13,0-11.68,2.49-16.28,7.09l-8.24-8.62c6.7-6.32,15.13-9.77,25.28-9.77,14.56,0,23.17,7.28,23.17,19.15v23.94c0,2.3,1.15,3.45,3.45,3.45h2.3ZM829.83,185.71v-5.94c-2.3,1.34-5.55,1.92-10.34,2.68-6.51,1.15-12.83,2.11-12.83,8.43,0,4.41,3.06,7.09,8.24,7.09,8.24,0,14.94-5.55,14.94-12.26Z"/>
        <path class="cls-1" d="M920.42,195.48v25.86h-13.22v-13.41h-38.5v13.41h-13.22v-25.86h6.9c.96-4.41,1.34-11.3,1.34-21.07v-23.94h49.03v45.01h7.66ZM899.16,195.86v-33.32h-22.03v12.45c0,8.24-.38,15.32-1.34,20.88h23.37Z"/>
        <path class="cls-1" d="M1002.96,207.93h-13.22v-42.14l-15.32,42.14h-13.79l-15.32-42.14v42.14h-13.41v-57.46h20.68l15.13,41.75,14.94-41.75h20.3v57.46Z"/>
        <path class="cls-1" d="M1020,130.55h14.94v12.26h-14.94v-12.26ZM1020.58,150.47h13.79v57.46h-13.79v-57.46Z"/>
        <path class="cls-1" d="M1104.46,150.47v57.46h-13.79v-22.98h-24.9v22.98h-13.79v-57.46h13.79v21.83h24.9v-21.83h13.79Z"/>
        <path class="cls-1" d="M1121.31,130.55h14.94v12.26h-14.94v-12.26ZM1121.89,150.47h13.79v57.46h-13.79v-57.46Z"/>
        <path class="cls-1" d="M1149.27,179.2c0-17.81,11.88-29.69,29.3-29.69,12.83,0,22.98,6.32,26.24,17.24l-13.21,4.02c-2.11-6.13-6.7-9.77-13.22-9.77-9.19,0-14.94,7.09-14.94,18.2s5.75,18.2,14.94,18.2c6.51,0,11.11-3.64,13.41-9.77l13.02,4.02c-3.26,10.92-13.41,17.24-26.24,17.24-17.43,0-29.3-11.88-29.3-29.69Z"/>
        <path class="cls-1" d="M1262.27,162.92h-20.11v45.01h-13.79v-45.01h-20.3v-12.45h54.2v12.45Z"/>
        <path class="cls-1" d="M1329.3,179.2c0,17.81-10.15,29.69-24.71,29.69-7.66,0-13.98-2.87-18.39-8.24v26.43h-13.79v-76.61h12.26l.77,8.62c4.4-6.13,11.11-9.58,19.15-9.58,14.94,0,24.71,11.68,24.71,29.69ZM1315.32,179.2c0-11.11-5.75-18.2-14.94-18.2s-14.75,7.09-14.75,18.2,5.55,18.2,14.75,18.2,14.94-7.09,14.94-18.2Z"/>
        <path class="cls-1" d="M1391.54,196.05v11.88c-.96.19-2.49.38-4.98.38-7.09,0-10.72-2.68-11.68-8.81-4.22,5.74-11.68,9.38-20.11,9.38-11.11,0-18.77-6.7-18.77-16.86,0-14.56,13.79-17.43,24.71-18.77,7.47-.96,12.26-1.92,12.26-5.75,0-4.02-4.21-6.7-11.11-6.7-6.13,0-11.68,2.49-16.28,7.09l-8.24-8.62c6.7-6.32,15.13-9.77,25.28-9.77,14.56,0,23.17,7.28,23.17,19.15v23.94c0,2.3,1.15,3.45,3.45,3.45h2.3ZM1372.58,185.71v-5.94c-2.3,1.34-5.55,1.92-10.34,2.68-6.51,1.15-12.83,2.11-12.83,8.43,0,4.41,3.06,7.09,8.24,7.09,8.24,0,14.94-5.55,14.94-12.26Z"/>
        <path class="cls-1" d="M1462.98,195.48v25.86h-13.22v-13.41h-46.35v-57.46h13.79v45.01h24.32v-45.01h13.79v45.01h7.66Z"/>
        <path class="cls-1" d="M1474.85,130.55h14.94v12.26h-14.94v-12.26ZM1475.42,150.47h13.79v57.46h-13.79v-57.46Z"/>
        <path class="cls-1" d="M1553.37,207.93h-13.6v-20.3h-11.3l-12.64,20.3h-15.32l14.56-22.22c-7.09-2.87-11.11-8.62-11.11-16.28,0-11.49,8.81-18.96,22.41-18.96h27.01v57.46ZM1539.77,177.28v-15.7h-11.87c-6.32,0-9.96,3.06-9.96,7.85s3.64,7.85,9.96,7.85h11.87Z"/>
      </g>
      <g>
        <path class="cls-1" d="M66.71,72.78c-.7,19.84,4.22,39.47,14.21,56.63,13.86,23.83,8.18,54.21-13.36,71.41-2.85,1.76-5.22,4.2-6.9,7.1-1.67-2.9-4.04-5.34-6.9-7.1-21.54-17.2-27.23-47.59-13.36-71.41,9.98-17.16,14.91-36.79,14.21-56.63l-1.62-45.76c-.28-7.82,2.47-15.45,7.67-21.29,5.2,5.85,7.95,13.47,7.67,21.29l-1.62,45.76ZM65.71,188.84c14.03-14.65,16.67-36.81,6.47-54.35-5.01-8.61-8.88-17.83-11.52-27.43-2.64,9.6-6.51,18.83-11.52,27.43-10.2,17.53-7.56,39.7,6.47,54.35v-31.47h10.11v31.47Z"/>
        <g id="a">
          <path class="cls-1" d="M88.75,69.09c2.4-20.4,14.54-38.36,32.57-48.2v146.59h-60.66l-5.05-10.11c0-10.64,7.37-19.86,17.75-22.19l14.8-3.33c5.45-1.23,8.87-6.64,7.64-12.08s-6.64-8.87-12.08-7.64c-.01,0-.02,0-.04,0l5.07-43.05ZM94.81,103.82c10.03,4.9,14.19,17.01,9.29,27.04-2.69,5.51-7.74,9.51-13.73,10.85l-14.8,3.33c-5.77,1.3-9.86,6.42-9.86,12.33h45.49V41.88c-6.86,8.01-11.18,17.88-12.42,28.35l-3.98,33.59ZM103.12,116.94h10.11v10.11h-10.11v-10.11Z"/>
        </g>
        <g id="a-2" data-name="a">
          <path class="cls-1" d="M32.57,69.09C30.17,48.69,18.03,30.73,0,20.89v146.59h60.66l5.05-10.11c0-10.64-7.37-19.86-17.75-22.19l-14.8-3.33c-5.45-1.23-8.87-6.64-7.64-12.08,1.23-5.45,6.64-8.87,12.08-7.64.01,0,.02,0,.04,0l-5.07-43.05ZM26.51,103.82c-10.03,4.9-14.19,17.01-9.29,27.04,2.69,5.51,7.74,9.51,13.73,10.85l14.8,3.33c5.77,1.3,9.86,6.42,9.86,12.33H10.11V41.88c6.86,8.01,11.18,17.88,12.42,28.35l3.98,33.59ZM18.2,116.94h-10.11v10.11h10.11v-10.11Z"/>
        </g>
      </g>
    </g>
  </g>
</svg>